<svg width="23" height="22" viewBox="0 0 23 22" fill="none" xmlns="http://www.w3.org/2000/svg">
<path d="M15.9375 6C16.6624 6 17.25 5.41237 17.25 4.6875C17.25 3.96263 16.6624 3.375 15.9375 3.375C15.2126 3.375 14.625 3.96263 14.625 4.6875C14.625 5.41237 15.2126 6 15.9375 6Z" fill="#D5D5D3"/>
<path d="M18.3751 8.25H17.6251V7.25653L16.2073 5.48438L16.7929 5.01562L18.2929 6.89062C18.3461 6.95715 18.3751 7.03981 18.3751 7.125V8.25Z" fill="#D5D5D3"/>
<path d="M11.625 3.375L10.875 3.75V4.125C10.875 4.32391 10.796 4.51468 10.6553 4.65533C10.5147 4.79598 10.3239 4.875 10.125 4.875H7.875V1.125H10.875V2.25L11.1248 2.625L11.625 3.375Z" fill="#FDC8A2"/>
<path d="M11.1248 2.625H9.375V1.875H10.875V2.25L11.1248 2.625Z" fill="#FDB683"/>
<path d="M1.125 15.375H3.75V17.625H1.125V15.375Z" fill="#C7483C"/>
<path d="M4.875 21.75C6.32475 21.75 7.5 20.5747 7.5 19.125C7.5 17.6753 6.32475 16.5 4.875 16.5C3.42525 16.5 2.25 17.6753 2.25 19.125C2.25 20.5747 3.42525 21.75 4.875 21.75Z" fill="#34507B"/>
<path d="M4.875 20.25C5.49632 20.25 6 19.7463 6 19.125C6 18.5037 5.49632 18 4.875 18C4.25368 18 3.75 18.5037 3.75 19.125C3.75 19.7463 4.25368 20.25 4.875 20.25Z" fill="#D5D5D3"/>
<path d="M1.125 5.25H5.625C5.82391 5.25 6.01468 5.32902 6.15533 5.46967C6.29598 5.61032 6.375 5.80109 6.375 6V11.25H0.375V6C0.375 5.80109 0.454018 5.61032 0.59467 5.46967C0.735322 5.32902 0.926088 5.25 1.125 5.25Z" fill="#D65246"/>
<path d="M1.5 7.875H2.25V10.125H1.5V7.875Z" fill="#DF6257"/>
<path d="M0.375 6.375H6.375V7.125H0.375V6.375Z" fill="#C7483C"/>
<path d="M13.8295 18.0455L16.1705 15.7045C16.3815 15.4935 16.5 15.2074 16.5 14.909V12C16.5 11.6022 16.658 11.2206 16.9393 10.9393C17.2206 10.658 17.6022 10.5 18 10.5V12.375C18 12.6212 18.0485 12.865 18.1427 13.0925C18.237 13.32 18.3751 13.5267 18.5492 13.7008C18.7233 13.8749 18.93 14.013 19.1575 14.1073C19.385 14.2015 19.6288 14.25 19.875 14.25V15.75H19.0386C18.8296 15.75 18.6229 15.7937 18.4317 15.8782C18.2406 15.9628 18.0692 16.0863 17.9287 16.241L15.0713 19.384C14.9308 19.5387 14.7594 19.6622 14.5683 19.7468C14.3771 19.8313 14.1704 19.875 13.9614 19.875H0.375C0.374991 18.7175 0.781233 17.5967 1.5229 16.708C2.26456 15.8193 3.2946 15.2192 4.43344 15.0121L4.5 15V13.5H10.875C10.875 13.8122 10.7624 14.114 10.5578 14.3499C10.3532 14.5858 10.0704 14.7399 9.7613 14.7841C9.34184 14.844 8.95807 15.0532 8.68045 15.3733C8.40283 15.6934 8.24999 16.103 8.25 16.5267V16.6147C8.25001 17.0816 8.43547 17.5293 8.76558 17.8594C9.09569 18.1895 9.54341 18.375 10.0103 18.375H13.034C13.3324 18.375 13.6185 18.2565 13.8295 18.0455Z" fill="#D65246"/>
<path d="M4.1383 17.0426L3.85059 16.35C4.10298 16.2453 4.36583 16.1679 4.63466 16.119L4.76877 16.8569C4.55261 16.8962 4.34125 16.9584 4.1383 17.0426Z" fill="#DF6257"/>
<path d="M2.55562 18.5384L1.88062 18.2115C2.17125 17.612 2.61337 17.0987 3.16326 16.7224L3.58654 17.3416C3.14458 17.644 2.78922 18.0566 2.55562 18.5384Z" fill="#DF6257"/>
<path d="M6.375 11.25H0.375C0.275544 11.25 0.180161 11.2895 0.109835 11.3598C0.0395088 11.4302 1.49919e-09 11.5255 1.49919e-09 11.625V12.0619C-1.11001e-05 12.2376 0.0616339 12.4077 0.174191 12.5426C0.286748 12.6775 0.443079 12.7687 0.615937 12.8002L4.43297 13.4939C4.45507 13.498 4.47751 13.5001 4.5 13.5H6.375C6.47446 13.5 6.56984 13.4605 6.64017 13.3902C6.71049 13.3198 6.75 13.2245 6.75 13.125V11.625C6.75 11.5255 6.71049 11.4302 6.64017 11.3598C6.56984 11.2895 6.47446 11.25 6.375 11.25ZM6 12.75H4.53375L0.75 12.0619V12H6V12.75Z" fill="#D5D5D3"/>
<path d="M11.2501 1.875H9.37512V2.76562C9.37513 2.94074 9.32843 3.11268 9.23983 3.26373C9.15123 3.41478 9.02395 3.53946 8.8711 3.62491C8.71825 3.71036 8.54537 3.75349 8.3703 3.74986C8.19522 3.74622 8.02428 3.69594 7.87512 3.60422C7.82354 3.57258 7.77504 3.53617 7.73027 3.49547C7.549 3.33192 7.43533 3.10658 7.41152 2.86359L7.33137 2.06156C7.30524 1.80089 7.33404 1.53765 7.41591 1.28879C7.49778 1.03994 7.6309 0.811009 7.80668 0.616765C7.98246 0.422521 8.19701 0.267277 8.43647 0.161045C8.67594 0.054813 8.93502 -4.80399e-05 9.19699 3.15643e-08H9.37512C9.8724 3.15643e-08 10.3493 0.197544 10.7009 0.549175C11.0526 0.900806 11.2501 1.37772 11.2501 1.875Z" fill="#D65246"/>
<path d="M7.875 10.125V10.875C7.875 11.1734 7.99353 11.4595 8.2045 11.6705C8.41548 11.8815 8.70163 12 9 12H12.75L10.875 16.875H12.75L14.5125 12.632C14.6202 12.3726 14.6662 12.0918 14.6468 11.8116C14.6273 11.5314 14.5431 11.2596 14.4006 11.0176C14.2405 10.7458 14.0123 10.5204 13.7384 10.3639C13.4645 10.2073 13.1545 10.125 12.8391 10.125H7.875Z" fill="#7A432A"/>
<path d="M12.375 7.5L10.125 4.875H7.875V10.125H10.875V8.25L11.2955 8.67052C11.5065 8.88148 11.7926 9 12.091 9H15.75V7.5H12.375Z" fill="#D65246"/>
<path d="M16.5 10.5H19.5V7.875H18.8385C18.5866 7.87499 18.3396 7.94516 18.1252 8.07762C17.9109 8.21009 17.7377 8.39963 17.625 8.625L16.5 9V10.5Z" fill="#D65246"/>
<path d="M22.1251 19.125C22.1247 19.8045 21.8607 20.4573 21.3886 20.9461C20.9165 21.4348 20.2732 21.7213 19.5942 21.7453C18.9151 21.7692 18.2532 21.5288 17.7478 21.0745C17.2425 20.6203 16.9331 19.9877 16.8848 19.3099C16.8365 18.6321 17.0531 17.962 17.4889 17.4407C17.9248 16.9194 18.5459 16.5876 19.2215 16.515C19.8971 16.4424 20.5745 16.6349 21.1111 17.0517C21.6477 17.4686 22.0016 18.0774 22.0984 18.75C22.1162 18.8742 22.1252 18.9995 22.1251 19.125Z" fill="#34507B"/>
<path d="M22.0983 18.75H19.125L17.64 20.9775C17.3468 20.683 17.1277 20.3232 17.0008 19.9276C16.8738 19.5319 16.8426 19.1118 16.9097 18.7017C16.9767 18.2917 17.1402 17.9034 17.3866 17.5688C17.633 17.2343 17.9553 16.963 18.327 16.7773C18.6987 16.5916 19.1092 16.4967 19.5247 16.5006C19.9402 16.5045 20.3488 16.6069 20.717 16.7995C21.0851 16.9921 21.4023 17.2693 21.6425 17.6084C21.8826 17.9475 22.0388 18.3388 22.0983 18.75Z" fill="#2F486E"/>
<path d="M20.578 19.125C20.5783 19.4071 20.4727 19.6791 20.282 19.8871C20.0914 20.0951 19.8296 20.224 19.5485 20.2482C19.2674 20.2724 18.9874 20.1902 18.764 20.0179C18.5406 19.8456 18.39 19.5957 18.3421 19.3176C18.2941 19.0396 18.3523 18.7536 18.505 18.5164C18.6578 18.2792 18.894 18.108 19.167 18.0366C19.44 17.9653 19.7298 17.999 19.9791 18.1311C20.2284 18.2632 20.4191 18.484 20.5133 18.75C20.5564 18.8703 20.5783 18.9972 20.578 19.125Z" fill="#CECECC"/>
<path d="M20.5134 18.75H19.1249L18.4889 19.7039C18.4078 19.5691 18.356 19.4188 18.3367 19.2628C18.3173 19.1067 18.3309 18.9483 18.3766 18.7979C18.4223 18.6474 18.499 18.5082 18.6018 18.3892C18.7046 18.2702 18.8312 18.1741 18.9735 18.107C19.1157 18.04 19.2704 18.0036 19.4276 18C19.5849 17.9965 19.7411 18.026 19.8862 18.0866C20.0313 18.1472 20.1621 18.2375 20.2701 18.3518C20.3782 18.466 20.461 18.6017 20.5134 18.75Z" fill="#C6C6C4"/>
<path d="M17.8125 18.5227L18.9609 19.6711C19.0256 19.7358 19.1023 19.7871 19.1868 19.822C19.2712 19.857 19.3617 19.875 19.4531 19.875C19.5445 19.875 19.635 19.857 19.7195 19.822C19.8039 19.7871 19.8807 19.7358 19.9453 19.6711C20.0099 19.6065 20.0612 19.5298 20.0962 19.4453C20.1312 19.3609 20.1492 19.2704 20.1492 19.179C20.1492 19.0875 20.1312 18.997 20.0962 18.9126C20.0612 18.8281 20.0099 18.7514 19.9453 18.6868L18.7969 17.5383L17.8125 18.5227Z" fill="#D5D5D3"/>
<path d="M16.125 20.25H17.625L19.125 18H22.125C22.125 17.4033 21.8879 16.831 21.466 16.409C21.044 15.9871 20.4717 15.75 19.875 15.75H19.125C18.3294 15.75 17.5663 16.0661 17.0037 16.6287C16.4411 17.1913 16.125 17.9544 16.125 18.75V20.25Z" fill="#D65246"/>
<path d="M15.75 7.5V9L16.5 9.375V10.125H18V8.25L15.75 7.5Z" fill="#FDC8A2"/>
<path d="M16.5 10.5C16.9142 10.5 17.25 10.1642 17.25 9.75C17.25 9.33579 16.9142 9 16.5 9C16.0858 9 15.75 9.33579 15.75 9.75C15.75 10.1642 16.0858 10.5 16.5 10.5Z" fill="#34507B"/>
<path d="M4.5 14.625H7.125V15.375H4.5V14.625Z" fill="#C7483C"/>
<path d="M12.284 19.125H5.25V18.375H13.034C13.3324 18.375 13.6185 18.2565 13.8295 18.0455L13.875 18L13.0795 18.7955C12.8685 19.0065 12.5824 19.125 12.284 19.125Z" fill="#C7483C"/>
<path d="M19.125 15.375C18.3278 15.3761 17.5566 15.6589 16.9478 16.1736C16.339 16.6883 15.9316 17.4016 15.7979 18.1875H16.5614C16.6903 17.6033 17.0146 17.0806 17.4807 16.7056C17.9468 16.3307 18.5268 16.1258 19.125 16.125H19.875V15.375H19.125Z" fill="#C7483C"/>
<path d="M10.125 12H7.125C6.71079 12 6.375 12.3358 6.375 12.75C6.375 13.1642 6.71079 13.5 7.125 13.5H10.125C10.5392 13.5 10.875 13.1642 10.875 12.75C10.875 12.3358 10.5392 12 10.125 12Z" fill="#34507B"/>
<path d="M10.875 8.31442L9.64021 7.07959L9.10986 7.60989L10.875 9.37506V8.31442Z" fill="#C7483C"/>
<path d="M10.875 16.875H13.125C13.3239 16.875 13.5147 16.954 13.6553 17.0947C13.796 17.2353 13.875 17.4261 13.875 17.625C13.875 17.8239 13.796 18.0147 13.6553 18.1553C13.5147 18.296 13.3239 18.375 13.125 18.375H10.875V16.875Z" fill="#D5D5D3"/>
</svg>
